PathFileType	4	(X/Y/Z)	SUBJ11_0_static_RCNL2025.trc
DataRate	CameraRate	NumFrames	NumMarkers	Units	OrigDataRate	OrigDataStartFrame	OrigNumFrames
100	100	11	25	mm	100	76	120
Frame#	Time	R_Shoulder			L_Shoulder			C7			J_Notch			R_Elbow			L_Elbow			R_Wrist			L_Wrist			R_Asis			L_Asis			Sacral			Thoracic			Sternum			R_Thigh_Lateral			R_Knee_Lateral			R_Shank_Lateral			R_Ankle_Lateral			R_Heel			R_Toe			L_Thigh_Lateral			L_Knee_Lateral			L_Shank_Lateral			L_Ankle_Lateral			L_Heel			L_Toe		
		X1	Y1	Z1	X2	Y2	Z2	X3	Y3	Z3	X4	Y4	Z4	X5	Y5	Z5	X6	Y6	Z6	X7	Y7	Z7	X8	Y8	Z8	X9	Y9	Z9	X10	Y10	Z10	X11	Y11	Z11	X12	Y12	Z12	X13	Y13	Z13	X14	Y14	Z14	X15	Y15	Z15	X16	Y16	Z16	X17	Y17	Z17	X18	Y18	Z18	X19	Y19	Z19	X20	Y20	Z20	X21	Y21	Z21	X22	Y22	Z22	X23	Y23	Z23	X24	Y24	Z24	X25	Y25	Z25
76	0.75000000	-333.079285	1316.960327	16.328732	-337.247375	1358.708130	-419.918640	-400.780670	1423.237061	-209.077286	-268.695251	1320.384033	-215.280060	-390.641785	1052.586182	126.927063	-339.026642	1076.891724	-546.095886	-324.610718	801.282593	143.558365	-265.956589	824.867706	-573.547577	-254.932709	905.272400	-105.837044	-274.520233	917.326050	-355.942047	-447.452362	947.579163	-206.793854	-468.760834	1204.328003	-208.006393	-218.608368	1166.711304	-228.598434	-317.440033	576.233276	-6.943057	-372.613983	460.817108	-83.428635	-388.433228	245.972870	-20.283649	-409.397675	64.586800	-81.771431	-451.161072	54.589520	-136.584625	-271.969147	43.360596	-97.074471	-368.101410	584.832825	-425.325012	-366.433594	478.120636	-373.883667	-412.366821	239.981766	-415.961700	-408.984528	64.020706	-361.257141	-452.997192	62.397476	-298.826752	-249.093781	64.598343	-348.785431
77	0.76000000	-332.975983	1316.950806	16.373306	-337.389832	1358.672241	-419.920410	-400.810272	1423.328979	-209.251572	-268.649536	1320.371704	-215.357071	-390.657990	1052.577881	127.184616	-339.088104	1076.840576	-546.194031	-324.470200	801.494720	143.619915	-266.277412	824.772552	-573.626221	-254.933060	905.267822	-105.837456	-274.690094	917.932617	-356.153412	-447.404572	947.527832	-206.699066	-468.787109	1204.330811	-207.955338	-218.524246	1166.835693	-228.585129	-317.577362	576.298096	-6.838665	-372.598907	460.855927	-83.454399	-389.100250	246.556961	-19.884209	-409.178192	64.175735	-81.929054	-451.127930	54.467762	-136.603775	-272.028778	43.345978	-97.059723	-368.092377	584.781982	-425.264221	-366.517792	478.140533	-373.798248	-412.232483	239.984894	-415.870453	-409.037903	64.106499	-361.285919	-452.944427	62.406040	-298.746155	-249.110550	64.514900	-348.817596
78	0.77000000	-333.002380	1316.904541	16.454380	-337.181061	1358.583862	-419.595917	-400.770874	1423.167725	-209.133926	-268.624420	1320.323364	-215.403595	-390.559113	1052.531006	127.283127	-339.227539	1076.757568	-546.247925	-324.838211	801.636017	143.722275	-266.526428	824.681671	-573.747711	-255.004028	905.188904	-105.864044	-274.634003	917.536438	-356.044342	-447.326782	947.513062	-206.736679	-468.688751	1204.291260	-207.937073	-218.498672	1166.858643	-228.554108	-317.694885	576.366699	-6.736481	-372.508972	460.722351	-83.360741	-389.167786	246.429733	-19.932096	-408.913788	64.020157	-82.073067	-451.111938	54.470562	-136.601913	-271.627014	42.615395	-97.223824	-368.146393	584.783813	-425.245789	-366.457428	478.141693	-373.791260	-412.230408	239.988144	-415.790649	-409.284393	64.793289	-362.160248	-452.807831	62.223457	-298.758087	-249.202805	64.531311	-348.771057
79	0.78000000	-333.039459	1316.786011	16.447296	-337.330505	1358.503784	-419.636963	-400.737091	1423.186523	-209.196274	-268.628357	1320.100708	-215.346237	-390.447174	1052.500977	127.319191	-339.362518	1076.735474	-546.247742	-324.687180	801.342010	143.969215	-266.684433	824.613251	-573.870270	-255.112030	905.147461	-105.895386	-274.606689	917.302673	-356.006714	-447.257172	947.498840	-206.674438	-468.707489	1204.337158	-207.906509	-218.538071	1166.808838	-228.593826	-317.684509	576.314453	-6.795391	-372.517334	460.787994	-83.394981	-389.082703	246.491791	-19.923470	-408.820374	63.856472	-82.125237	-451.089264	54.462143	-136.590790	-271.827087	43.150753	-97.167236	-368.159210	584.795776	-425.245178	-366.342041	478.149780	-373.912170	-412.264282	240.022736	-415.812958	-409.082306	64.184715	-361.373322	-452.902252	62.369381	-298.751678	-249.199722	64.487213	-348.817383
80	0.79000000	-332.920197	1316.779907	16.463228	-337.109253	1358.449951	-419.434723	-400.764862	1423.143066	-209.095596	-268.635284	1319.924072	-215.366180	-390.405701	1052.691528	127.502632	-339.559814	1076.739258	-546.314636	-324.479553	801.370422	144.243465	-267.012405	824.585327	-573.933685	-255.192474	905.089539	-106.070335	-274.926025	917.842957	-356.220001	-447.255615	947.482178	-206.670853	-468.625641	1204.268066	-207.868073	-218.603165	1166.818115	-228.586426	-317.696381	576.333618	-6.813766	-372.603271	460.792694	-83.461449	-388.932465	246.395432	-19.944778	-409.385345	64.488304	-81.930489	-451.021057	54.490059	-136.688126	-271.958588	43.237392	-97.135231	-368.138947	584.812561	-425.275055	-366.272308	478.165558	-373.824432	-412.232086	240.019012	-415.844360	-408.979828	64.046486	-361.222839	-452.834808	62.290417	-298.809174	-249.171768	64.472496	-348.834290
81	0.80000000	-332.892853	1316.725586	16.540216	-337.299377	1358.430176	-419.506897	-400.782471	1423.162964	-209.063293	-268.721741	1319.891235	-215.339310	-390.294739	1052.635620	127.579720	-339.812164	1076.747559	-546.445312	-324.336594	801.329010	144.331444	-267.251862	824.446960	-574.190369	-255.189407	905.086792	-106.070595	-274.900909	917.377747	-356.125732	-447.257721	947.482178	-206.672333	-468.659485	1204.278564	-207.817551	-218.572296	1166.718872	-228.541122	-317.552795	576.261841	-6.841952	-372.627594	460.692749	-83.439362	-389.013855	246.475647	-19.934420	-409.470062	64.524445	-81.940155	-451.148682	54.581802	-136.594727	-272.083466	43.312614	-97.061653	-368.151733	584.773254	-425.250885	-366.393158	478.139862	-373.832947	-412.268707	239.977249	-415.802216	-409.038269	64.088806	-361.295197	-452.911102	62.358704	-298.759094	-249.120483	64.427124	-348.800385
82	0.81000000	-332.744141	1316.733276	16.446785	-337.520416	1358.335449	-419.555878	-400.710938	1423.095703	-208.989944	-268.610962	1319.863647	-215.392853	-390.266418	1052.634521	127.689529	-340.060638	1076.672852	-546.413818	-324.325912	801.359863	144.565502	-267.358749	824.389954	-574.338440	-255.114136	904.987427	-106.002693	-275.107666	917.699646	-356.204498	-447.193787	947.453857	-206.605042	-468.592438	1204.292603	-207.763138	-218.530579	1166.680420	-228.530655	-317.329712	576.078186	-6.938476	-372.645081	460.587799	-83.580376	-388.836304	246.340607	-20.017315	-409.451050	64.618263	-81.743835	-451.142059	54.593262	-136.668823	-272.091949	43.215843	-97.049400	-368.240448	584.800781	-425.161621	-366.493744	478.095032	-373.731598	-412.244202	239.927109	-415.824310	-409.065399	64.051338	-361.328430	-452.931305	62.333019	-298.760986	-249.224701	64.389618	-348.830200
83	0.82000000	-332.679138	1316.707642	16.459904	-337.624664	1358.317627	-419.543945	-400.624481	1423.173706	-209.057816	-268.548431	1319.867554	-215.421387	-390.325623	1052.745361	127.815331	-340.341644	1076.635864	-546.429016	-324.352966	801.349182	144.740650	-267.414139	824.118042	-574.498505	-255.034744	905.021606	-105.969955	-275.252838	917.780457	-356.262268	-447.188446	947.436035	-206.603394	-468.599915	1204.257568	-207.745392	-218.604584	1166.578369	-228.552902	-317.201843	576.171692	-6.846065	-372.605316	460.458588	-83.569328	-387.983856	245.579910	-20.953388	-409.263397	64.340378	-81.896721	-451.084534	54.548710	-136.549164	-272.056946	43.152695	-97.061523	-368.232941	584.850952	-425.201813	-366.677734	478.090759	-373.649506	-412.219849	239.878448	-415.860718	-409.405914	64.754326	-362.389954	-452.955841	62.334045	-298.838318	-249.209152	64.262878	-348.967163
84	0.83000000	-332.553375	1316.697144	16.455957	-337.558136	1358.240112	-419.447266	-400.549988	1423.163940	-208.967270	-268.625763	1319.888672	-215.435257	-390.217560	1052.666504	127.796013	-340.506897	1076.644775	-546.438843	-324.234879	801.466980	144.886063	-267.656311	824.237000	-574.633911	-254.944046	905.060425	-105.913277	-275.032532	917.267822	-356.119781	-447.190063	947.436157	-206.605270	-468.557129	1204.328491	-207.667236	-218.733154	1166.536987	-228.590408	-317.213318	576.184143	-6.829824	-372.545746	460.549103	-83.518936	-388.405518	245.990402	-20.291861	-409.326447	64.500755	-81.819450	-451.123260	54.563759	-136.669754	-271.608551	42.699043	-97.187218	-368.232147	584.860291	-425.212006	-366.637451	478.062164	-373.651947	-412.269196	239.935669	-415.816101	-409.137817	64.115364	-361.444489	-452.875305	62.221409	-298.935181	-249.331909	64.215836	-348.891083
85	0.84000000	-332.541626	1316.644653	16.456409	-337.753174	1358.217773	-419.549347	-400.543793	1423.153564	-208.935944	-268.472717	1319.781006	-215.431122	-389.855316	1052.613281	127.745888	-340.612457	1076.755493	-546.532471	-324.077698	801.578491	145.047371	-267.915039	824.170441	-574.721344	-254.782593	905.107971	-105.836411	-275.106781	917.683594	-356.238983	-447.126953	947.439026	-206.534088	-468.526672	1204.284668	-207.689117	-218.614853	1166.582886	-228.572998	-317.186920	576.177917	-6.863494	-372.518433	460.796631	-83.531044	-388.757172	246.249588	-19.969215	-409.325745	64.381622	-82.025635	-451.113251	54.495094	-136.648315	-271.725769	43.057045	-97.177681	-368.277008	584.832703	-425.179291	-366.561462	477.977264	-373.772003	-412.526520	240.003326	-416.016846	-409.417725	64.757774	-362.309540	-452.835724	62.206280	-298.917664	-249.392136	64.302101	-348.897034
86	0.85000000	-332.407562	1316.616455	16.397377	-338.089813	1358.152100	-419.699738	-400.541046	1423.133057	-208.945374	-268.400635	1319.724731	-215.472900	-389.689636	1052.574341	127.775650	-340.853455	1076.709473	-546.556091	-324.009872	801.660278	145.169353	-268.114578	824.110962	-574.716370	-254.629776	905.149475	-105.790482	-274.908203	917.322021	-356.129974	-447.140442	947.449524	-206.502197	-468.511414	1204.368652	-207.569321	-218.483887	1166.615601	-228.567154	-317.162598	576.137512	-6.911469	-372.339569	460.729523	-83.418747	-388.962311	246.469193	-19.869564	-409.300049	64.392174	-81.870911	-451.130280	54.564007	-136.637833	-272.181671	43.699535	-97.040657	-368.264954	584.887512	-425.201050	-366.549011	477.974030	-373.792389	-412.326385	239.977264	-415.835938	-409.131104	64.110893	-361.426575	-452.910278	62.317169	-298.768677	-249.255112	64.363182	-348.942902
